# xmcd
#
# Track frame offsets:
# 150
# 14214
# 24326
# 25903
# 39542
# 50910
# 62984
# 74049
# 84246
# 95668
# 97074
# 110087
# 119797
# 130789
# 141100
# 151731
# 161027
# 162486
# 175823
# 185569
# 195057
# 204281
# 212899
# 223303
# 224864
# 238307
# 248701
# 258843
# 269423
#
# Disc length: 3720 seconds
#
#
# Revision: 2
# Processed by: cddbd v1.5.1PL0 Copyright (c) Steve Scherf et al.
# Submitted via: FreeRIP 2.70 
#
DISCID=c90e861d
DTITLE=不明 - 空中英語教室
DYEAR=1900
DGENRE=
TTITLE0=第 1 音軌
TTITLE1=第 2 音軌
TTITLE2=第 3 音軌
TTITLE3=第 4 音軌
TTITLE4=第 5 音軌
TTITLE5=第 6 音軌
TTITLE6=第 7 音軌
TTITLE7=第 8 音軌
TTITLE8=第 9 音軌
TTITLE9=第 10 音軌
TTITLE10=第 11 音軌
TTITLE11=第 12 音軌
TTITLE12=第 13 音軌
TTITLE13=第 14 音軌
TTITLE14=第 15 音軌
TTITLE15=第 16 音軌
TTITLE16=第 17 音軌
TTITLE17=第 18 音軌
TTITLE18=第 19 音軌
TTITLE19=第 20 音軌
TTITLE20=第 21 音軌
TTITLE21=第 22 音軌
TTITLE22=第 23 音軌
TTITLE23=第 24 音軌
TTITLE24=第 25 音軌
TTITLE25=第 26 音軌
TTITLE26=第 27 音軌
TTITLE27=第 28 音軌
TTITLE28=第 29 音軌
EXTD=
EXTT0=
EXTT1=
EXTT2=
EXTT3=
EXTT4=
EXTT5=
EXTT6=
EXTT7=
EXTT8=
EXTT9=
EXTT10=
EXTT11=
EXTT12=
EXTT13=
EXTT14=
EXTT15=
EXTT16=
EXTT17=
EXTT18=
EXTT19=
EXTT20=
EXTT21=
EXTT22=
EXTT23=
EXTT24=
EXTT25=
EXTT26=
EXTT27=
EXTT28=
PLAYORDER=
